<?xml version="1.0" encoding="utf-8"?>
<!-- Generator: Adobe Illustrator 27.8.0, SVG Export Plug-In . SVG Version: 6.00 Build 0)  -->
<svg version="1.1" id="Layer_1" xmlns="http://www.w3.org/2000/svg" xmlns:xlink="http://www.w3.org/1999/xlink" x="0px" y="0px"
	 viewBox="0 0 100 100" style="enable-background:new 0 0 100 100;" xml:space="preserve">
<style type="text/css">
	.st0{clip-path:url(#SVGID_00000052065937987317730690000016034562716069389188_);}
</style>
<g>
	<defs>
		<rect id="SVGID_1_" x="9" y="10" width="81" height="80"/>
	</defs>
	<clipPath id="SVGID_00000098937596477083303690000016498433948303098278_">
		<use xlink:href="#SVGID_1_"  style="overflow:visible;"/>
	</clipPath>
	<g style="clip-path:url(#SVGID_00000098937596477083303690000016498433948303098278_);">
		<path d="M33,17c1.1-3.5,3.2-5.8,6.6-6.8c3.9-1,8.3,1,10,4.8c0.3,0.7,0.7,0.9,1.4,0.9c9-0.6,17.9-1.1,26.9-1.7
			c1.1-0.1,2.3-0.2,3.4-0.2c2.8-0.1,5.2,2,5.4,4.9c0.5,7.3,0.9,14.6,1.3,21.9c0.5,9,1.1,18,1.7,27.1c0.1,2.3,0.4,4.7,0.2,7
			c-0.8,7.9-7.8,14.6-15.6,15.1c-2.4,0.2-4.7-0.1-7-0.8c-0.7-0.2-1.5-0.2-2.3-0.3c-13.2-0.6-26.4-1.3-39.6-1.9
			c-1.2-0.1-2.4-0.1-3.6-0.1c-3.4-0.2-5.3-2.5-5.2-5.9c0-0.5,0-0.9,0.1-1.6c-0.9-0.1-1.9-0.3-2.8-0.4c-3.5-0.4-5.3-2.8-4.9-6.4
			c1.5-12.2,3.1-24.4,4.6-36.7c0.6-5,1.3-10,1.9-15.1c0.5-3.8,2.8-5.7,6.5-5.2c3.3,0.5,6.7,0.9,10,1.3C32.3,17,32.6,17,33,17L33,17z
			 M50.6,21.2c0,0.5,0,0.8,0,1.2c0,2.2,0.1,4.5,0,6.7c-0.1,1.3-0.3,2.8-0.7,4c-1.5,3.9-5.7,6.1-9.9,5.3c-4-0.8-7.2-4.6-7.2-8.8
			c0-1.5,1-2.6,2.3-2.7c1.5-0.1,2.6,0.8,2.7,2.4c0,0.3,0,0.5,0.1,0.8c0.4,2.1,2.1,3.5,4,3.3c2-0.2,3.5-1.7,3.5-3.9
			c0-2.4,0-4.8,0-7.3c0-0.2-0.1-0.4-0.1-0.7c-5.3,0.3-10.5,0.6-15.8,1c1.1,17.8,2.1,35.5,3.2,53.3c7.6-0.5,15.1-1,22.7-1.4
			c-0.4-7.9,2.4-14,9.1-17.8c6.7-3.7,13.3-2.7,19.5,1.9c-0.8-13.2-1.6-26.2-2.4-39.3C71.2,19.9,61,20.6,50.6,21.2L50.6,21.2z
			 M72.7,84.8c6.8,0.1,12.3-5.5,12.4-12.4c0.1-7-5.4-12.7-12.2-12.8c-6.7-0.1-12.3,5.6-12.4,12.4C60.4,79,65.9,84.7,72.7,84.8z
			 M24.8,28.2c-0.2,0-0.3,0-0.5,0c-0.8,17.7-1.6,35.5-2.5,53.3c12.5,0.6,24.9,1.2,37.4,1.8c-0.7-1.2-1.3-2.1-1.8-3.2
			c-0.3-0.5-0.6-0.7-1.2-0.7c-1.5,0.1-3,0.2-4.5,0.3c-6.1,0.4-12.3,0.8-18.4,1.1c-3.1,0.2-5.4-1.9-5.6-5.1
			c-0.5-7.5-0.9-14.9-1.3-22.4c-0.5-8.1-0.9-16.2-1.4-24.4C24.9,28.8,24.8,28.5,24.8,28.2L24.8,28.2z M18.6,39.7c-0.1,0-0.2,0-0.2,0
			c-1.4,11.3-2.8,22.5-4.3,33.9c1,0.1,1.9,0.2,2.9,0.4C17.5,62.5,18,51.1,18.6,39.7z M20.7,20.7c-0.2,1.4-0.3,2.7-0.4,3.8
			c1.3-0.6,2.7-1.2,4.2-1.9c0-0.2,0.1-0.8,0.2-1.4C23.3,21.1,22.1,20.9,20.7,20.7z M44.4,16.4c-1.9-1.6-4.1-1.5-5.4,0.3
			C40.8,16.6,42.5,16.5,44.4,16.4z"/>
		<path d="M75.3,69.6c1.9,0,3.6-0.1,5.3,0c0.8,0.1,1.7,0.4,2.3,0.9c0.8,0.6,0.8,1.7,0.4,2.6c-0.4,1-1.1,1.6-2.2,1.6
			c-1.6,0-3.1,0-4.7,0c-0.4,0-0.8,0-1.3,0c0,2.1,0,4,0,6c0,1.3-0.9,2.3-2.2,2.5c-1.2,0.2-2.3-0.5-2.7-1.8c-0.1-0.4-0.1-0.8-0.1-1.3
			c0-1.8,0-3.5,0-5.4c-1.9,0-3.7,0.1-5.5,0c-0.7-0.1-1.6-0.4-2.2-0.9c-0.7-0.6-0.9-1.6-0.5-2.6c0.4-1.1,1.3-1.6,2.4-1.7
			c1.5,0,3,0,4.4,0c0.4,0,0.8,0,1.3,0c0-2,0-3.9,0-5.8c0-1.9,1.8-3.1,3.5-2.4c1,0.4,1.6,1.3,1.6,2.6C75.3,65.7,75.3,67.6,75.3,69.6
			L75.3,69.6z"/>
	</g>
</g>
</svg>
