<svg width="17" height="18" viewBox="0 0 17 18" fill="none" xmlns="http://www.w3.org/2000/svg">
<path d="M1.18164 5.2981H15.8249C15.7417 6.25097 15.6616 7.18207 15.5791 8.11246C15.3885 10.2459 15.1987 12.38 15.0051 14.5135C14.9393 15.2359 14.8961 15.9618 14.7865 16.6785C14.6685 17.4473 13.9999 17.987 13.1664 17.9905C10.0549 18.0024 6.94335 18.0046 3.83182 17.9898C2.9091 17.9856 2.24806 17.3531 2.16411 16.434C1.92284 13.7876 1.69594 11.1405 1.46224 8.49333C1.37677 7.5257 1.28677 6.55806 1.19979 5.59042C1.19147 5.49977 1.1892 5.40842 1.18315 5.2981H1.18164ZM4.54125 7.30153C4.54806 7.30153 4.55487 7.30153 4.56167 7.30153C4.69706 9.36821 4.83093 11.4356 4.96782 13.5023C5.00866 14.1214 5.05026 14.7398 5.10018 15.3581C5.12665 15.6849 5.37094 15.8957 5.68255 15.8852C5.99718 15.8746 6.21879 15.6505 6.22635 15.323C6.22938 15.1944 6.21652 15.0658 6.2082 14.9372C6.06223 12.7539 5.91777 10.5699 5.76953 8.38652C5.73323 7.84965 5.70222 7.31207 5.64095 6.77731C5.60692 6.47795 5.38078 6.31984 5.06161 6.34092C4.74395 6.3613 4.56167 6.54471 4.54277 6.84547C4.53293 6.99655 4.54125 7.14904 4.54125 7.30083V7.30153ZM12.4403 7.34159C12.4456 7.34159 12.4517 7.34159 12.457 7.34159C12.457 7.16661 12.4698 6.99023 12.454 6.81596C12.4282 6.53136 12.2429 6.3599 11.9442 6.34233C11.6485 6.32546 11.4314 6.46741 11.3664 6.74568C11.324 6.92699 11.318 7.11672 11.3051 7.30294C11.2098 8.70344 11.116 10.104 11.023 11.5052C10.9398 12.7539 10.8528 14.0033 10.7772 15.2527C10.7545 15.6301 10.9784 15.8739 11.3164 15.8859C11.6424 15.8971 11.8799 15.6786 11.9034 15.3258C12.0841 12.6646 12.2619 10.0035 12.4403 7.34159ZM9.06561 11.1067C9.06561 9.93741 9.06561 8.76739 9.06561 7.59808C9.06561 7.34088 9.07469 7.08228 9.05351 6.8265C9.02855 6.52855 8.83417 6.35919 8.515 6.33881C8.21398 6.31914 7.98406 6.52574 7.94473 6.83493C7.93263 6.92769 7.93566 7.02185 7.93566 7.11531C7.93566 9.78211 7.93566 12.4482 7.93641 15.115C7.93641 15.2429 7.90389 15.4094 7.97498 15.491C8.11188 15.6477 8.29491 15.8268 8.49004 15.869C8.75627 15.9259 8.96729 15.751 9.0346 15.491C9.06637 15.368 9.0641 15.2359 9.06485 15.108C9.06712 13.7749 9.06637 12.4412 9.06637 11.1081L9.06561 11.1067Z" fill="#E20000"/>
<path d="M4.50782 2.11526C4.52295 1.8686 4.529 1.65849 4.55093 1.44979C4.63489 0.650801 5.27852 0.0345217 6.13469 0.0197647C7.70936 -0.00693842 9.28555 -0.0062357 10.8602 0.0197647C11.7171 0.033819 12.3638 0.648693 12.4493 1.44487C12.472 1.65357 12.4773 1.86368 12.4931 2.11526C12.6353 2.11526 12.77 2.11526 12.9046 2.11526C13.875 2.11526 14.8453 2.10893 15.8157 2.11736C16.5183 2.12369 17.0092 2.57624 17.0001 3.18549C16.991 3.77998 16.5055 4.22129 15.8195 4.22199C10.9419 4.22621 6.06435 4.22621 1.18678 4.22199C0.484154 4.22129 -0.00821577 3.76523 0.000103848 3.15597C0.00842346 2.56148 0.49323 2.12369 1.17846 2.11736C2.14883 2.10893 3.1192 2.11526 4.08957 2.11455C4.22571 2.11455 4.36109 2.11455 4.50707 2.11455L4.50782 2.11526ZM5.67257 2.08644H11.3276C11.3276 1.89531 11.3397 1.73157 11.3254 1.56995C11.2959 1.25513 11.0985 1.06962 10.7619 1.06751C9.25227 1.05908 7.74264 1.05908 6.23376 1.06751C5.8972 1.06962 5.70282 1.26076 5.67559 1.57487C5.66198 1.73649 5.67333 1.90023 5.67333 2.08574L5.67257 2.08644Z" fill="#E20000"/>
</svg>
