<svg width="12" height="12" viewBox="0 0 12 12" fill="none" xmlns="http://www.w3.org/2000/svg">
<g clip-path="url(#clip0_260_694)">
<path d="M10.005 7.69C9.39 7.69 8.795 7.59 8.24 7.41C8.065 7.35 7.87 7.395 7.735 7.53L6.95 8.515C5.535 7.84 4.21 6.565 3.505 5.1L4.48 4.27C4.615 4.13 4.655 3.935 4.6 3.76C4.415 3.205 4.32 2.61 4.32 1.995C4.32 1.725 4.095 1.5 3.825 1.5H2.095C1.825 1.5 1.5 1.62 1.5 1.995C1.5 6.64 5.365 10.5 10.005 10.5C10.36 10.5 10.5 10.185 10.5 9.91V8.185C10.5 7.915 10.275 7.69 10.005 7.69Z" fill="#666666"/>
</g>
<defs>
<clipPath id="clip0_260_694">
<rect width="12" height="12" fill="white"/>
</clipPath>
</defs>
</svg>
