<?xml version="1.0" encoding="utf-8"?>
<!-- Generator: Adobe Illustrator 28.0.0, SVG Export Plug-In . SVG Version: 6.00 Build 0)  -->
<svg version="1.1" id="Layer_1" xmlns="http://www.w3.org/2000/svg" xmlns:xlink="http://www.w3.org/1999/xlink" x="0px" y="0px"
	 viewBox="0 0 100 100" style="enable-background:new 0 0 100 100;" xml:space="preserve">
<g>
	<path d="M52.18,77.25c6.67-1.26,11.42-6.59,12.07-13.37c0.19-2,0.4-4.01,0.64-6.01c0.25-2.08,1.76-3.29,3.83-3.12
		c1.74,0.15,3.15,1.77,2.97,3.65c-0.29,2.97-0.52,5.97-1.12,8.89c-1.79,8.8-9.01,15.53-17.97,16.86c-0.99,0.15-1.32,0.5-1.63,1.38
		c-0.55,1.52-1.18,3.06-2.05,4.41c-2.51,3.86-6.04,5.35-10.66,4.5c-7.38-1.35-14.16-4.16-20.44-8.19
		C10.99,81.86,7.34,75.18,5.82,67.52C3.95,58.1,3.72,48.49,4.25,38.9c0.29-5.15,0.73-10.31,1.52-15.41
		c1.31-8.36,8.86-15.43,17.18-16.87C32.5,4.98,42.01,4.96,51.57,6.3c9.61,1.34,16.98,7.71,18.94,16.82c0.65,3.01,0.9,6.12,1.19,9.2
		c0.18,1.93-1.35,3.5-3.22,3.63c-1.84,0.12-3.36-1.26-3.6-3.26c-0.31-2.54-0.56-5.08-0.95-7.61c-0.89-5.68-5.65-10.42-11.34-11.65
		c-7.67-1.66-20.66-1.56-26.06-0.36c0.94,0.35,1.58,0.54,2.17,0.83c2.88,1.4,5.81,2.72,8.6,4.28c8.63,4.84,12.83,12.76,14.13,22.12
		c1.67,11.94,1.79,23.99,0.75,36.03C52.16,76.59,52.18,76.86,52.18,77.25z"/>
	<path d="M83.74,48.8c-7.24,0-14.48,0.01-21.72-0.01c-0.7,0-1.42-0.04-2.09-0.23c-1.71-0.47-2.75-2.06-2.5-3.7
		c0.25-1.7,1.59-2.88,3.4-2.88c7.03-0.02,14.05-0.01,21.08-0.01c0.65,0,1.31,0,2.34,0c-0.55-0.61-0.89-1.03-1.27-1.42
		c-1.61-1.62-3.27-3.2-4.85-4.86c-1.54-1.62-1.55-3.71-0.1-5.08c1.41-1.34,3.38-1.27,4.96,0.3c3.95,3.91,7.88,7.83,11.78,11.79
		c1.7,1.72,1.63,3.57-0.1,5.31c-3.84,3.86-7.69,7.71-11.55,11.56c-1.72,1.71-3.69,1.83-5.18,0.35c-1.45-1.43-1.32-3.48,0.38-5.18
		c1.87-1.87,3.78-3.71,5.67-5.56C83.91,49.06,83.82,48.93,83.74,48.8z"/>
</g>
</svg>
