<svg width="717" height="536" viewBox="0 0 717 536" fill="none" xmlns="http://www.w3.org/2000/svg">
<rect width="717" height="557" fill="white"/>
<path d="M85.4166 491.275C85.4166 491.275 -4.24449 444.559 17.3595 339.538C38.9634 234.518 126.955 209.588 163.148 217.292C230.973 231.744 120.156 274.378 93.6842 201.191C60.4747 109.375 178.895 39.8544 288.661 57.8508C359.206 69.4067 393.265 103.088 455.975 124.243C518.686 145.399 544.678 117.094 519.783 100.731C494.887 84.3678 410.341 110.546 439.811 145.275C480.145 192.84 577.378 119.143 652.729 201.206C728.08 283.269 662.666 386.44 604.746 395.038C546.826 403.635 572.216 320.741 662.666 386.44C753.115 452.139 662.666 500.109 662.666 500.109" stroke="#C3C8FF" stroke-miterlimit="10"/>
<path d="M44.4351 490.633H675.743V496.621C675.743 499.924 673.051 502.609 669.738 502.609H44.4351C41.1221 502.609 38.4294 499.924 38.4294 496.621C38.4294 493.318 41.1221 490.633 44.4351 490.633Z" fill="#2D2D2D"/>
<path d="M38.4294 490.633H275.158V496.621C275.158 499.924 272.465 502.609 269.152 502.609H44.4351C41.1221 502.609 38.4294 499.924 38.4294 496.621V490.633Z" fill="#6B6B6B"/>
<path d="M362.563 262.179C335.792 313.483 305.693 334.385 305.693 334.385L331.675 375.752L377.042 328.734L362.549 262.179H362.563Z" fill="#0E369B"/>
<path d="M428.949 249.936L362.549 262.179C358.348 387.419 356.769 490.605 356.769 490.605H475.937C475.937 490.605 479.391 298.823 460.218 256.978L428.935 249.936H428.949Z" fill="#0E369B"/>
<path d="M421.252 313.765L453.592 311.038" stroke="#6876EB" stroke-width="4" stroke-miterlimit="10"/>
<path d="M406.393 286.847C406.393 286.847 426.919 426.537 409.057 483.056" stroke="#6876EB" stroke-miterlimit="10"/>
<path d="M384.908 356.818C384.908 356.818 404.744 364.774 430.444 365.618C456.158 366.461 440.157 380.095 402.051 377.509" stroke="#6876EB" stroke-miterlimit="10"/>
<path d="M390.012 244.847L406.393 288.253L428.95 249.936L414.091 225.717L390.012 244.847Z" fill="#E9A394"/>
<path d="M406.393 288.253L436.985 279.833L428.949 249.936L406.393 288.253Z" fill="#6876EB"/>
<path d="M393.649 254.49L377.056 272.974L406.393 288.253L393.649 254.49Z" fill="#6876EB"/>
<path d="M331.676 375.752C331.676 375.752 341.375 355.596 320.553 329.634C309.007 315.24 303.692 290.389 303.692 290.389L286.352 293.018L302.24 375.752H331.69H331.676Z" fill="#E9A394"/>
<path d="M282.813 264.442L275.707 270.879L285.195 279.243L255.477 278.737L254.843 288.899L286.351 293.018L303.691 290.389L282.813 264.442Z" fill="#E9A394"/>
<path d="M288.001 280.283L259.481 268.56L257.648 273.606L281.445 283.586L288.001 280.283Z" fill="#E9A394"/>
<path d="M460.246 256.978C460.246 256.978 498.564 278.723 510.66 360.206L466.21 370.903L460.246 256.992V256.978Z" fill="#0E369B"/>
<path d="M377.028 191.8L362.563 228.725L373.63 232.113L377.028 252.902L412.356 244.847L417.46 188.412L377.028 191.8Z" fill="#E9A394"/>
<path d="M400.613 200.571H373.588L376.534 192.615L400.613 191.125V200.571Z" fill="#E37A82"/>
<path d="M414.725 217.424C414.725 217.424 397.483 213.868 397.483 196.087C397.483 196.087 371.91 199.559 363.085 185.713C352.625 169.324 368.611 150.475 381.807 154.312C381.807 154.312 373.489 162.535 386.121 163.491C395.129 164.179 411.581 152.232 417.46 163.786C417.46 163.786 462.798 174.117 428.949 216.229L414.711 217.41L414.725 217.424Z" fill="#0E369B"/>
<path d="M397.484 194.681C397.484 194.681 363.297 201.259 356.149 176.83C351.976 162.535 366.328 154.41 366.328 154.41" stroke="#16005C" stroke-width="2" stroke-miterlimit="10"/>
<path d="M383.019 227.544C390.143 227.544 395.919 221.786 395.919 214.683C395.919 207.58 390.143 201.822 383.019 201.822C375.895 201.822 370.12 207.58 370.12 214.683C370.12 221.786 375.895 227.544 383.019 227.544Z" stroke="#16005C" stroke-width="0.5" stroke-miterlimit="10"/>
<path d="M395.228 210.508L413.611 211.52" stroke="#16005C" stroke-width="0.5" stroke-miterlimit="10"/>
<path d="M436.985 220.657C436.985 228.627 426.27 235.078 418.291 235.078C410.312 235.078 408.056 228.613 408.056 220.657C408.056 212.701 414.541 206.235 422.52 206.235C430.5 206.235 436.985 212.701 436.985 220.657Z" fill="#E9A394"/>
<path d="M505.344 361.485V428.013H472.074L469.311 370.144L505.344 361.485Z" fill="#E9A394"/>
<path d="M359.97 346.445L361.365 300.088L339.81 367.318L359.97 346.445Z" fill="#0E369B"/>
<path d="M391.731 249.261L412.356 244.847L395.439 259.227L391.731 249.261Z" fill="#E37A82"/>
<path d="M379.523 220.657C380.885 220.657 381.99 218.36 381.99 215.526C381.99 212.693 380.885 210.396 379.523 210.396C378.16 210.396 377.056 212.693 377.056 215.526C377.056 218.36 378.16 220.657 379.523 220.657Z" fill="#0E369B"/>
<path d="M386.233 203.03C386.233 196.143 380.735 200.781 380.735 200.781L386.233 203.03Z" fill="#0E369B"/>
<path d="M380.735 233.49L388.602 231.41C388.602 231.41 391.971 260.478 380.735 233.49Z" fill="white"/>
<path d="M211.366 363.776C211.366 363.776 264.388 355.596 265.431 447.79C265.6 462.745 275.158 490.633 275.158 490.633H227.099L211.366 363.776Z" fill="#5321D7"/>
<path d="M155.92 355.596L123.876 363.144L133.66 490.633H258.354C258.354 490.633 254.167 389.766 207.151 359.503L155.934 355.596H155.92Z" fill="#6A3FDC"/>
<path d="M123.876 363.13C90.8449 370.636 98.5704 395.923 104.957 447.832C88.4765 461.185 104.28 467.187 104.28 467.187C86.1786 486.318 108.763 490.619 108.763 490.619H169.059C169.059 490.619 156.921 355.61 123.862 363.13H123.876Z" fill="#6A3FDC"/>
<path d="M165.478 461.185L151.014 394.953" stroke="#5321D7" stroke-miterlimit="10"/>
<path d="M108.763 490.633C108.763 490.633 118.941 467.328 151.126 455.605C177.799 445.892 216.836 471.109 241.817 447.143L246.441 474.117L169.073 490.619H108.763V490.633Z" fill="#E9A394"/>
<path d="M214.833 289.94L238.687 326.134L223.391 331.588L220.74 361.007L174.74 345.068L179.067 285.231L214.833 289.94Z" fill="#E9A394"/>
<path d="M179.435 327.961L155.92 355.596L186.089 392.437L199.679 349.397L179.435 327.961Z" fill="#E37A82"/>
<path d="M187.301 310.855L220.952 299.217L214.834 289.94L181.592 293.383L187.301 310.855Z" fill="#E37A82"/>
<path d="M184.397 323.534C184.397 323.534 194.59 343.873 187.498 304.67C187.498 304.67 197.169 305.753 204.74 293.032C204.74 293.032 202.386 313.765 224.604 293.032C246.821 272.299 218.584 256.078 184.073 262.179C154.172 267.464 124.242 284.317 167.973 341.427L184.397 323.534Z" fill="#3A3A3A"/>
<path d="M178.955 331.63C176.657 334.694 172.71 337.477 168.621 338.082C160.416 339.276 152.409 332.825 151.225 324.644C150.041 316.463 154.171 312.218 162.376 311.038C166.986 310.363 172.315 311.726 176.319 314.51C177.531 316.014 178.969 331.644 178.969 331.644L178.955 331.63Z" fill="#E9A394"/>
<path d="M211.406 320.333C212.631 320.002 213.008 317.468 212.247 314.673C211.487 311.879 209.877 309.882 208.653 310.213C207.428 310.545 207.051 313.079 207.812 315.873C208.572 318.668 210.182 320.665 211.406 320.333Z" fill="#3A3A3A"/>
<path d="M202.076 308.156C202.076 308.156 200.877 301.437 207.137 304.67L202.076 308.156Z" fill="#3A3A3A"/>
<path d="M152.156 356.72L157.626 350.479L155.61 345.841L167.973 341.441L203.429 359.208L204.74 372.786L198.735 370.903L188.937 407.294L152.156 356.72Z" fill="#6A3FDC"/>
<path d="M184.171 365.618L204.74 372.786L203.429 359.208" stroke="#5321D7" stroke-miterlimit="10"/>
<path d="M187.498 304.67C187.498 304.67 191.629 328.678 197.691 333.612C199.679 335.228 203.443 331.11 220.741 330.758C231.328 330.548 231.314 367.375 217.272 366.32C203.231 365.266 181.887 356.537 178.687 329.69C175.882 306.132 187.498 304.67 187.498 304.67Z" fill="#444444"/>
<path d="M204.74 338.068C204.74 338.068 208.306 344.688 215.341 340.204" stroke="#C4C6C5" stroke-miterlimit="10"/>
<path d="M166.619 475.466H284.998C288.55 475.466 291.426 478.334 291.426 481.876V484.209C291.426 487.751 288.55 490.619 284.998 490.619H173.048C169.495 490.619 166.619 487.751 166.619 484.209V475.466Z" fill="#0E369B"/>
<path d="M381.13 387.812H243.424C239.336 387.812 235.882 390.848 235.36 394.897L224.265 481.496C223.645 486.346 227.437 490.633 232.329 490.633H370.035C374.123 490.633 377.577 487.597 378.099 483.548L389.194 396.949C389.814 392.099 386.022 387.812 381.13 387.812Z" fill="#0E369B"/>
<path d="M387.798 387.812H250.092C246.004 387.812 242.55 390.848 242.028 394.897L230.934 481.496C230.313 486.346 234.106 490.633 238.997 490.633H376.704C380.792 490.633 384.246 487.597 384.767 483.548L395.862 396.949C396.483 392.099 392.69 387.812 387.798 387.812Z" fill="#6876EB"/>
<path d="M322.282 448.502C328.014 443.078 328.69 434.509 323.792 429.362C318.893 424.215 310.275 424.44 304.543 429.864C298.81 435.288 298.134 443.857 303.033 449.004C307.931 454.15 316.549 453.926 322.282 448.502Z" fill="white"/>
<path d="M384.796 489.888H213.396" stroke="#1C145E" stroke-miterlimit="10"/>
<path d="M460.542 373.995L517.44 375.077L504.541 305.682L474.287 309.098C474.287 309.098 460.655 329.156 471.425 344.744C483.564 362.342 459.301 362.989 460.542 374.009V373.995Z" fill="#2D2D2D"/>
<path d="M474.287 309.084C474.287 309.084 460.655 329.142 471.425 344.73C483.564 362.328 459.301 362.975 460.542 373.995" fill="#2D2D2D"/>
<path d="M485.636 365.618C485.636 365.618 459.753 390.947 446.092 486.402H474.908L485.636 365.618Z" fill="#7079F1"/>
<path d="M554.066 358.561L542.802 486.402H459.104L469.522 437.571C469.522 437.571 437.662 420.999 485.65 365.618L497.577 359.503L549.4 355.596L554.066 358.561Z" fill="#C3C8FF"/>
<path d="M485.636 422.826C485.636 422.826 480.617 431.4 485.439 438.274L478.333 486.402" stroke="#7079F1" stroke-miterlimit="10"/>
<path d="M473.949 437.796L522.417 439.215" stroke="#7079F1" stroke-miterlimit="10"/>
<path d="M531.975 461.86L526.858 400.364" stroke="#7079F1" stroke-miterlimit="10"/>
<path d="M554.066 358.561C554.066 358.561 558.69 364.353 564.033 377.804C571.618 396.864 580.669 431.316 580.076 486.402H542.788L554.052 358.561H554.066Z" fill="#C3C8FF"/>
<path d="M580.077 490.619C580.077 490.619 561.454 448.141 514.593 460.3C463.433 473.569 444.429 471.095 444.429 471.095L440.552 490.619H580.077Z" fill="#E9A394"/>
<path d="M531.313 451.36L514.691 455.071L552.459 490.619H588.056C588.056 490.619 572.717 453.525 531.327 451.374L531.313 451.36Z" fill="#7079F1"/>
<path d="M532.342 462.394L540.265 459.976" stroke="#C3C8FF" stroke-miterlimit="10"/>
<path d="M444.443 471.081L420.124 466.077L402.699 490.619H440.552L444.443 471.081Z" fill="#E9A394"/>
<path d="M485.636 422.826L530.819 377.79L522.417 373.84L554.066 358.561L539.531 349.341H505.725L485.636 374.36L491.19 375.752L485.636 379.632V422.826Z" fill="#7079F1"/>
<path d="M517.229 364.648L531.975 354.485L516.045 318.965L491.36 334.427L498.31 363.889L485.636 422.826L517.229 364.648Z" fill="#E9A394"/>
<path d="M493.347 342.847L510.673 333.837L495.208 350.704L493.347 342.847Z" fill="#E37A82"/>
<path d="M461.684 291.429L454.127 333.232H465.476L478.22 350.704L510.673 333.837L487.976 283.403L461.684 291.429Z" fill="#E9A394"/>
<path d="M459.852 301.564L459.091 306.16L489.034 302.084L488.569 296.363L459.852 301.564Z" fill="#E37A82"/>
<path d="M544.423 288.253C536.923 267.998 527.774 260.197 527.774 260.197C509.405 242.008 478.023 262.193 478.023 262.193C437.803 252.48 454.128 302.281 454.128 302.281L486.891 298.275C491.472 325.67 507.854 311.797 507.854 311.797L515.495 325.529C515.495 325.529 507.783 332.319 515.819 343.971C522.431 353.557 506.585 356.832 510.688 367.037L574 353.951C574 312.415 557.971 324.869 544.437 288.267L544.423 288.253Z" fill="#2D2D2D"/>
<path d="M451.562 302.59C451.562 302.59 445.768 274.168 456.411 264.905C461.966 260.084 479.433 262.179 479.433 262.179" stroke="#3F3F3F" stroke-width="2" stroke-miterlimit="10"/>
<path d="M578.145 352.742C578.145 352.742 583.206 333.837 555.645 312.401" stroke="#3F3F3F" stroke-width="2" stroke-miterlimit="10"/>
<path d="M508.785 327.286C516.321 327.286 522.431 321.195 522.431 313.68C522.431 306.166 516.321 300.074 508.785 300.074C501.248 300.074 495.138 306.166 495.138 313.68C495.138 321.195 501.248 327.286 508.785 327.286Z" fill="#E9A394"/>
<path d="M473.949 331.7L482.408 329.634C482.408 329.634 485.383 353.684 473.949 331.7Z" fill="white"/>
<path d="M466.901 317.489C466.901 317.489 469.594 301.128 475.487 317.489" stroke="#1C145E" stroke-width="0.5" stroke-miterlimit="10"/>
<path d="M468.988 305.05C468.988 305.05 472.259 299.512 476.15 305.05H468.988Z" fill="#2D2D2D"/>
<path d="M341.741 157.714C336.836 144.107 321.413 137.304 307.893 143.109C296.262 148.113 290.088 161.27 293.697 173.386C295.713 180.161 300.266 185.39 305.976 188.454C311.248 191.28 315.759 195.3 319.072 200.262L320.031 201.695L338.978 194.906L338.795 193.205C338.175 187.175 339.232 181.145 341.46 175.509C343.645 170.013 343.898 163.73 341.741 157.728V157.714Z" fill="#C3C8FF"/>
<path d="M341.741 157.714C336.836 144.107 321.413 137.304 307.893 143.109C296.262 148.113 290.088 161.27 293.697 173.386C295.713 180.161 300.266 185.39 305.976 188.454C311.248 191.28 315.759 195.3 319.072 200.262L320.031 201.695L338.978 194.906L338.795 193.205C338.175 187.175 339.232 181.145 341.46 175.509C343.645 170.013 343.898 163.73 341.741 157.728V157.714Z" fill="#FF9900"/>
<path d="M324.373 196.115L309.274 174.876C309.274 174.876 309.556 170.575 314.293 171.264C319.03 171.953 321.863 179.402 318.48 178.193C315.097 176.985 313.898 168.228 320.299 166.892C326.699 165.557 328.842 180.049 325.303 177.252C321.765 174.455 322.512 165.234 329.363 165.149L333.381 195.778" stroke="white" stroke-miterlimit="10"/>
<path d="M332.244 191.953L323.355 195.14C319.971 196.354 318.213 200.074 319.431 203.449L321.306 208.647C322.523 212.022 326.254 213.774 329.639 212.56L338.527 209.373C341.912 208.159 343.669 204.44 342.451 201.065L340.577 195.867C339.359 192.492 335.628 190.74 332.244 191.953Z" fill="#0E369B"/>
<path d="M340.653 187.224L313.87 196.827L318.574 209.869L345.357 200.265L340.653 187.224Z" fill="#6876EB"/>
<path d="M317.31 134.591L314.631 119.312" stroke="#C3C8FF" stroke-miterlimit="10"/>
<path d="M297.996 143.7L285.209 131.232" stroke="#C3C8FF" stroke-miterlimit="10"/>
<path d="M284.66 166.33L270.069 167.384" stroke="#C3C8FF" stroke-miterlimit="10"/>
<path d="M338.358 142.969L344.927 130.81" stroke="#C3C8FF" stroke-miterlimit="10"/>
<path d="M543.959 255.207H634.508C637.652 255.207 640.669 252.663 641.247 249.528L650.607 198.055C651.171 194.92 649.085 192.376 645.941 192.376H555.392C552.248 192.376 549.231 194.92 548.653 198.055L539.292 249.528C538.728 252.663 540.815 255.207 543.959 255.207Z" fill="#0E369B"/>
<path d="M616.575 227.77C619.22 225.362 619.729 221.625 617.712 219.424C615.696 217.223 611.918 217.392 609.273 219.8C606.629 222.208 606.12 225.945 608.136 228.146C610.153 230.347 613.931 230.179 616.575 227.77Z" fill="white"/>
<path d="M598.596 227.769C601.24 225.36 601.749 221.624 599.733 219.423C597.716 217.222 593.938 217.39 591.294 219.798C588.649 222.207 588.14 225.943 590.157 228.144C592.173 230.345 595.952 230.177 598.596 227.769Z" fill="white"/>
<path d="M580.605 227.763C583.249 225.354 583.759 221.618 581.742 219.417C579.726 217.216 575.947 217.384 573.303 219.792C570.659 222.201 570.15 225.937 572.166 228.138C574.182 230.339 577.961 230.171 580.605 227.763Z" fill="white"/>
<path d="M592.694 251.819L561.228 270.458L566.867 250.343L592.694 251.819Z" fill="#0E369B"/>
<path d="M252.263 247.574H161.714C158.57 247.574 155.553 245.03 154.975 241.896L145.614 190.422C145.051 187.288 147.137 184.744 150.281 184.744H240.83C243.974 184.744 246.991 187.288 247.569 190.422L256.93 241.896C257.494 245.03 255.407 247.574 252.263 247.574Z" fill="#C3C8FF"/>
<path d="M188.093 220.51C190.11 218.309 189.601 214.573 186.956 212.164C184.312 209.756 180.534 209.588 178.517 211.789C176.501 213.99 177.01 217.726 179.654 220.135C182.299 222.543 186.077 222.711 188.093 220.51Z" fill="white"/>
<path d="M206.067 220.519C208.083 218.318 207.574 214.581 204.93 212.173C202.285 209.765 198.507 209.596 196.49 211.797C194.474 213.998 194.983 217.735 197.627 220.143C200.272 222.552 204.05 222.72 206.067 220.519Z" fill="white"/>
<path d="M224.048 220.517C226.065 218.316 225.556 214.58 222.911 212.171C220.267 209.763 216.489 209.595 214.472 211.796C212.456 213.997 212.965 217.733 215.609 220.142C218.254 222.55 222.032 222.718 224.048 220.517Z" fill="white"/>
<path d="M219.965 244.187L224.928 262.179L245.017 242.922L219.965 244.187Z" fill="#C3C8FF"/>
</svg>
