<?xml version="1.0" encoding="utf-8"?>
<!-- Generator: Adobe Illustrator 27.8.0, SVG Export Plug-In . SVG Version: 6.00 Build 0)  -->
<svg version="1.1" id="Layer_1" xmlns="http://www.w3.org/2000/svg" xmlns:xlink="http://www.w3.org/1999/xlink" x="0px" y="0px"
	 viewBox="0 0 100 100" style="enable-background:new 0 0 100 100;" xml:space="preserve">
<path d="M21.2,10.8c0-1.1,0-2,0-2.9c0-1.8,1.3-3.2,3-3.2c1.7,0,3,1.3,3.1,3.1c0,0.9,0,1.9,0,2.9h13.6c0-1,0-2,0-3
	c0.1-1.5,1-2.6,2.5-3c1.2-0.3,2.6,0.3,3.2,1.5c0.3,0.5,0.4,1.1,0.4,1.6c0.1,0.9,0,1.9,0,2.9h13.9c0-0.9,0-1.8,0-2.7
	c0-1.9,1.3-3.3,3-3.3c1.8,0,3,1.3,3.1,3.3c0,0.9,0,1.8,0,2.8c1.3,0,2.6,0,3.9,0c3.2,0,6.1,1.1,8.5,3.4c2.3,2.2,3.7,5,3.8,8.2
	c0.1,7.4,0.1,14.8,0,22.2c0,1.8-1.4,3.1-3.1,3.1c-1.7,0-3-1.3-3-3.2c0-6.9,0-13.7,0-20.6c0-4.5-2.4-6.9-7-6.9c-1,0-2,0-3.1,0
	c0,1.2,0.1,2.3,0,3.4c-0.1,1.4-1.2,2.5-2.6,2.7c-1.3,0.2-2.8-0.6-3.2-2c-0.2-0.5-0.2-1.1-0.2-1.6c0-0.8,0-1.6,0-2.5H47
	c0,1,0,1.9,0,2.9c0,1.8-1.3,3.2-3,3.2c-1.7,0-3-1.3-3.1-3.1c0-0.9,0-1.9,0-2.9H27.2c0,1,0,2,0,3c-0.1,1.5-1,2.6-2.5,3
	c-1.2,0.3-2.6-0.3-3.2-1.5c-0.3-0.5-0.4-1.1-0.4-1.6c-0.1-0.9,0-1.9,0-2.9c-1.6,0-3.1-0.1-4.5,0c-3.1,0.4-5.2,2.7-5.4,5.8
	c0,0.3,0,0.7,0,1c0,15.3,0,30.6,0,45.8c0,4.4,2.4,6.9,6.9,6.9c8.1,0,16.2,0,24.3,0c1.3,0,2.4,0.4,3.1,1.6c1,1.9-0.1,4.1-2.3,4.5
	c-0.2,0-0.3,0-0.5,0c-8.6,0-17.2,0.1-25.9,0C10.3,82.4,5.2,77,5.2,70.2c0-13.2,0-26.4,0-39.7c0-2.7,0-5.3,0-8
	c0.2-5.5,4.1-10.3,9.4-11.4c1-0.2,2.1-0.3,3.2-0.3C18.9,10.7,20,10.8,21.2,10.8L21.2,10.8z"/>
<path d="M21.2,49.8c0-1.7,1.3-3,3-3c1.7,0,3,1.3,3,3c0,1.6-1.5,3.1-3.1,3.1C22.5,52.9,21.2,51.5,21.2,49.8z"/>
<path d="M53.7,49.9c0,1.7-1.4,3-3,3c-1.6,0-3-1.5-3-3.1c0-1.7,1.4-3,3.1-3C52.4,46.9,53.7,48.2,53.7,49.9z"/>
<path d="M37.4,46.9c1.7,0,3,1.3,3,3c0,1.6-1.4,3-3,3.1c-1.7,0-3.1-1.4-3.1-3.1C34.4,48.2,35.7,46.8,37.4,46.9L37.4,46.9z"/>
<path d="M21.2,63.1c0-1.7,1.3-3,3-3.1c1.7,0,3.1,1.4,3.1,3.1c0,1.6-1.4,3-3.1,3C22.5,66.1,21.2,64.8,21.2,63.1L21.2,63.1z"/>
<path d="M37.4,60.1c1.7,0,3,1.4,3,3.1c0,1.7-1.4,3-3.1,3c-1.7,0-3-1.4-3-3.1C34.4,61.4,35.8,60,37.4,60.1z"/>
<path d="M21.2,36.6c0-1.7,1.3-3,3-3c1.7,0,3,1.4,3.1,3c0,1.7-1.4,3.1-3.1,3C22.4,39.6,21.2,38.3,21.2,36.6L21.2,36.6z"/>
<path d="M53.7,36.6c0,1.7-1.3,3-3,3c-1.7,0-3-1.4-3.1-3c0-1.7,1.4-3.1,3.1-3.1C52.4,33.6,53.7,34.9,53.7,36.6L53.7,36.6z"/>
<path d="M37.4,33.6c1.7,0,3,1.4,3,3c0,1.7-1.4,3.1-3.1,3c-1.7,0-3-1.4-3-3.1C34.4,34.9,35.8,33.6,37.4,33.6z"/>
<path d="M63.9,39.7c-1.7,0-3-1.3-3.1-3c0-1.7,1.3-3.1,3-3.1c1.7,0,3,1.3,3,3C66.9,38.3,65.6,39.6,63.9,39.7L63.9,39.7z"/>
<path d="M47.6,72.1c0.1-12.7,11.1-23.6,23.8-23.4c13,0.2,23.5,10.9,23.4,23.7C94.7,85.4,84,96.1,71,96
	C58.1,95.9,47.5,85.1,47.6,72.1z M71.1,91.3c10.5,0,19.1-8.5,19.1-18.9c0-10.4-8.6-19-19.1-19c-10.3,0-18.9,8.6-18.9,18.9
	C52.2,82.8,60.6,91.3,71.1,91.3z"/>
<path d="M68,76.2c0.4-0.5,0.7-1,1.1-1.4c3.2-3.2,6.4-6.4,9.6-9.7c0.2-0.2,0.5-0.5,0.8-0.7c0.8-0.5,1.8-0.4,2.4,0.2
	c0.6,0.6,0.7,1.7,0.2,2.4c-0.2,0.3-0.4,0.5-0.6,0.7c-3.9,3.9-7.9,7.9-11.8,11.8c-1.4,1.4-2.3,1.4-3.6,0c-1.8-1.8-3.7-3.7-5.5-5.5
	c-0.7-0.7-0.9-1.7-0.4-2.4c0.5-0.8,1.2-1.1,2-0.9c0.5,0.1,0.9,0.5,1.2,0.8C64.9,73.1,66.3,74.5,68,76.2L68,76.2z"/>
</svg>
