<?xml version="1.0" encoding="utf-8"?>
<!-- Generator: Adobe Illustrator 27.0.0, SVG Export Plug-In . SVG Version: 6.00 Build 0)  -->
<svg version="1.1" id="Layer_1" xmlns="http://www.w3.org/2000/svg" xmlns:xlink="http://www.w3.org/1999/xlink" x="0px" y="0px"
	 viewBox="0 0 100 100" style="enable-background:new 0 0 100 100;" xml:space="preserve">
<g>
	<path d="M7.6,50.1c0-10.2,0-20.5,0-30.7c0-8.8,5.7-15,14.5-15.2C31.6,3.9,41.1,4,50.6,4c6.1,0,12.1-0.1,18.2,0.2
		c6,0.3,10.5,3.2,12.7,8.9c0.7,2,1.1,4.2,1.1,6.2c0.1,6.7,0.1,13.3,0,20c0,0.6,0,1.2-0.2,1.8c-0.3,1.7-1.5,2.7-3.3,2.8
		c-1.7,0.1-3.1-0.7-3.7-2.3c-0.2-0.8-0.4-1.6-0.4-2.4c0-6.4,0-12.7,0-19.1c0-1,0-2.1-0.2-3.1c-0.7-3.6-3.5-5.8-7.5-5.8
		c-11.7,0-23.5,0-35.2,0c-3,0-6-0.1-9,0c-5.5,0.1-8.2,2.9-8.2,8.4c0,12.2,0,24.4,0,36.6c0,7.8,0,15.6,0,23.4c0,0.7,0,1.5,0.1,2.2
		c0.4,4.1,2.8,6.5,6.9,6.7c3.7,0.2,7.5,0.1,11.2,0.1c0.9,0,1.9,0.1,2.8,0.4c1.5,0.5,2.3,1.7,2.4,3.1c0,1.5-0.8,2.8-2.2,3.3
		c-0.4,0.2-0.9,0.4-1.4,0.4c-4.9,0-9.8,0.2-14.6-0.3c-7.5-0.8-12.6-6.9-12.6-14.4C7.6,70.9,7.6,60.5,7.6,50.1z"/>
	<path d="M92.4,63.7c0,3.3-1.5,5.9-3.7,8.1c-6,5.9-12.1,11.7-18.1,17.5c-1.4,1.4-3.1,2.4-5,3c-4.2,1.1-8.4,2.3-12.6,3.4
		c-3.8,1-6-1.3-4.9-5.1c1.2-4.2,2.5-8.3,3.9-12.4c0.4-1.1,1-2.2,1.8-3c6.4-6.4,12.9-12.7,19.5-19c3.5-3.4,7.7-4.2,12.3-2.5
		C89.7,55.3,92.4,59.3,92.4,63.7z M56.9,87.2c1.5-0.4,2.7-0.8,3.9-1c2.8-0.6,5.1-1.8,6.8-4.2c0.5-0.7,1.1-1.2,1.7-1.8
		c2.8-2.6,5.5-5.3,8.3-7.9c-1.8-1.8-3.4-3.4-5.2-5.1c-0.2,0.2-0.5,0.5-0.8,0.7c-3.5,3.4-6.8,6.9-10.4,10.1
		C58.4,80.4,58.2,83.8,56.9,87.2z M78.4,61.5c1.7,1.7,3.4,3.3,5.1,5c1-0.8,1.8-1.9,1.4-3.5c-0.3-1.5-1.2-2.4-2.6-2.8
		C80.7,59.9,79.4,60.3,78.4,61.5z"/>
	<path d="M45.1,25.6c5.9,0,11.9,0,17.8,0c0.3,0,0.7,0,1,0c2.2,0.1,3.9,1.6,3.9,3.5c0,1.9-1.7,3.5-3.9,3.6c-1.5,0.1-3,0.1-4.4,0.1
		c-11,0-22.1,0-33.1,0c-1.5,0-2.7-0.4-3.5-1.7c-0.7-1.1-0.8-2.3-0.2-3.5c0.7-1.4,1.9-2,3.4-2c3.5,0,7,0,10.5,0
		C39.5,25.6,42.3,25.6,45.1,25.6z"/>
	<path d="M45.1,40c6.3,0,12.6,0,18.8,0c2.1,0,3.6,1.2,3.8,3c0.3,2.2-1.1,4-3.4,4.1c-2.8,0.1-5.7,0.1-8.5,0.1c-9.9,0-19.7,0-29.6,0
		c-1.6,0-2.9-0.6-3.6-2.1c-0.6-1.3-0.3-2.6,0.5-3.7c0.8-1.1,2-1.4,3.4-1.4C32.8,40,38.9,39.9,45.1,40C45.1,40,45.1,40,45.1,40z"/>
	<path d="M37.6,61.5c-3.7,0-7.3,0-11,0c-1.4,0-2.6-0.4-3.5-1.5c-1.7-2.1-0.4-5.1,2.5-5.6c0.6-0.1,1.1-0.1,1.7-0.1
		c6.9,0,13.9,0,20.8,0c1,0,2,0.2,2.9,0.5c1.4,0.6,2.1,1.8,1.9,3.4c-0.1,1.5-1,2.4-2.3,2.9c-0.8,0.3-1.6,0.3-2.4,0.3
		C44.6,61.5,41.1,61.5,37.6,61.5C37.6,61.5,37.6,61.5,37.6,61.5z"/>
</g>
</svg>
