<?xml version="1.0" encoding="utf-8"?>
<!-- Generator: Adobe Illustrator 27.8.0, SVG Export Plug-In . SVG Version: 6.00 Build 0)  -->
<svg version="1.1" id="Layer_1" xmlns="http://www.w3.org/2000/svg" xmlns:xlink="http://www.w3.org/1999/xlink" x="0px" y="0px"
	 viewBox="0 0 100 100" style="enable-background:new 0 0 100 100;" xml:space="preserve">
<g>
	<path d="M50.5,10.5c19.9,0,36.7,15.2,38.8,34.9c2.2,21.2-12.6,40.1-33.7,43c-7.5,1-14.6-0.2-21.5-3.3c-0.8-0.4-1.9-0.4-2.7-0.2
		c-5.6,1.4-11.1,3-16.7,4.4c-3.3,0.9-4.7-0.5-3.8-3.9c1.5-5.6,3-11.1,4.5-16.7c0.2-0.8,0.1-1.8-0.2-2.6
		C4.1,42.2,18.9,14.8,44.9,10.9C46.8,10.7,48.6,10.6,50.5,10.5z M16.4,83.5c0.7-0.1,1-0.2,1.4-0.3c4.4-1.2,8.7-2.3,13.1-3.5
		c1.6-0.5,3-0.3,4.6,0.4c21.2,10.4,46.3-3.4,48.8-26.9c2.4-21.7-15.9-39.9-37.5-37.5c-22.6,2.5-36.6,26-27.7,46.9
		c1.4,3.3,1.6,6.1,0.5,9.4C18.4,75.7,17.5,79.5,16.4,83.5z"/>
	<path d="M62.1,60c-1.4,3.8-4.1,5.1-7.9,5c-6.1-0.1-12.1,0-18.2,0c-4.7,0-7.4-2.6-7.4-7.3c0-5.1,0-10.2,0-15.3
		c0-4.4,2.7-7.1,7.1-7.2c6.1,0,12.2,0.1,18.4,0c3.8-0.1,6.6,1.2,8,5c1.3-0.7,2.5-1.5,3.8-2.2c2.7-1.5,5.4,0,5.4,3.1c0,6,0,12,0,18.1
		c0,3-2.6,4.5-5.2,3.1C64.8,61.6,63.5,60.8,62.1,60L62.1,60z M45.5,40.2c-3.2,0-6.5,0-9.7,0c-1.7,0-2.2,0.5-2.2,2.2
		c0,5.1,0,10.3,0,15.4c0,1.7,0.5,2.2,2.2,2.2c6.4,0,12.9,0,19.3,0c1.7,0,2.2-0.6,2.2-2.2c0-5.1,0-10.3,0-15.4c0-1.6-0.6-2.2-2.2-2.2
		C51.9,40.1,48.7,40.2,45.5,40.2L45.5,40.2z M66.3,43.5c-1.1,0.6-1.9,1.2-2.7,1.6c-1.1,0.5-1.3,1.2-1.3,2.3c0.1,2,0,4,0,6
		c0,0.4,0.1,1,0.4,1.2c1.1,0.7,2.3,1.4,3.6,2.1V43.5z"/>
</g>
</svg>
