<?xml version="1.0" encoding="utf-8"?>
<!-- Generator: Adobe Illustrator 27.0.0, SVG Export Plug-In . SVG Version: 6.00 Build 0)  -->
<svg version="1.1" id="Layer_1" xmlns="http://www.w3.org/2000/svg" xmlns:xlink="http://www.w3.org/1999/xlink" x="0px" y="0px"
	 viewBox="0 0 100 100" style="enable-background:new 0 0 100 100;" xml:space="preserve">
<g>
	<path d="M26.73,23.95c0-2.03-0.01-3.89,0-5.74c0.03-4.65,3.56-8.33,8.21-8.35c10.04-0.05,20.09-0.05,30.13,0
		c4.65,0.03,8.17,3.7,8.2,8.37c0.01,1.85,0,3.7,0,5.66c0.52,0.03,0.94,0.06,1.36,0.06c4.11,0,8.22-0.01,12.34,0.01
		c5.25,0.02,8.59,3.37,8.59,8.61c0,3.87-0.02,7.75,0.01,11.62c0.03,3.03-1.01,5.62-2.92,7.93c-0.36,0.43-0.61,1.1-0.62,1.66
		c-0.04,9.29-0.1,18.58,0,27.87c0.05,5.01-3.86,8.55-8.46,8.53c-22.38-0.08-44.76-0.03-67.14-0.04c-5.08,0-8.42-3.39-8.42-8.5
		c0-9.25,0.01-18.5-0.03-27.75c0-0.63-0.31-1.37-0.7-1.86c-1.82-2.27-2.85-4.79-2.83-7.73c0.03-3.99,0-7.99,0.01-11.98
		c0.01-4.85,3.38-8.3,8.25-8.35c4.19-0.05,8.38-0.01,12.57-0.01C25.69,23.95,26.12,23.95,26.73,23.95z M59.25,57.91
		c6.11-0.46,11.99-1.32,17.72-3.04c3.38-1.02,6.64-2.28,9.52-4.37c2.5-1.81,3.92-4.06,3.77-7.31c-0.17-3.51-0.03-7.03-0.04-10.55
		c-0.01-2.39-0.92-3.31-3.29-3.31c-24.63,0-49.26,0-73.88,0c-2.35,0-3.26,0.93-3.27,3.33c-0.01,3.72,0.06,7.43-0.02,11.15
		c-0.05,2.27,0.76,4.11,2.42,5.55c1.06,0.93,2.23,1.78,3.45,2.47c4.24,2.39,8.88,3.69,13.63,4.55c3.75,0.68,7.55,1.13,11.49,1.71
		c0-1.02-0.02-1.76,0-2.5c0.04-1.68,1.08-2.75,2.75-2.76c4.35-0.03,8.7-0.03,13.05,0c1.61,0.01,2.64,1.08,2.7,2.69
		C59.27,56.27,59.25,57.01,59.25,57.91z M86.66,56.76c-8.81,4.35-18.1,5.72-27.49,6.56c-1.64,4.6-4.44,6.93-8.37,7.08
		c-2.14,0.08-4.16-0.2-6.01-1.4c-2.09-1.36-3.31-3.31-3.93-5.69c-9.48-0.83-18.78-2.15-27.53-6.6c0,0.66,0,1.05,0,1.43
		c0,7.75,0,15.5,0,23.25c0,2.55,0.93,3.46,3.53,3.46c22.1,0,44.21,0,66.31,0c2.55,0,3.48-0.93,3.48-3.52c0-7.71,0-15.42,0-23.13
		C86.66,57.78,86.66,57.36,86.66,56.76z M31.99,23.84c12.08,0,24.02,0,36.03,0c0-1.76,0.01-3.42,0-5.07
		c-0.01-2.39-1.26-3.62-3.68-3.63c-2.17-0.01-4.35,0-6.52,0c-7.43,0-14.86-0.01-22.29,0c-2.06,0-3.45,1.16-3.53,3.04
		C31.93,20.03,31.99,21.89,31.99,23.84z M53.81,58.13c-2.43,0-4.82-0.01-7.21,0.03c-0.17,0-0.49,0.4-0.49,0.62
		c-0.02,1.18-0.07,2.37,0.08,3.53c0.22,1.68,1.76,2.77,3.71,2.8c2.01,0.03,3.66-1.03,3.87-2.74C53.95,61.03,53.81,59.64,53.81,58.13
		z"/>
</g>
</svg>
