<?xml version="1.0" encoding="utf-8"?>
<!-- Generator: Adobe Illustrator 27.8.0, SVG Export Plug-In . SVG Version: 6.00 Build 0)  -->
<svg version="1.1" id="Layer_1" xmlns="http://www.w3.org/2000/svg" xmlns:xlink="http://www.w3.org/1999/xlink" x="0px" y="0px"
	 viewBox="0 0 100 100" style="enable-background:new 0 0 100 100;" xml:space="preserve">
<g>
	<path d="M49.4,89c-8.8,0-17.5,0-26.2,0C19,89,16,87,15,83.2c-0.4-1.3-0.4-2.9-0.1-4.2c2.2-8.8,4.6-17.6,6.8-26.5
		c1.6-6.4,7.4-10.5,13.2-10.4c15.2,0.1,30.4,0,45.6,0c2.1,0,2.9,0.5,2.9,2c0,1.6-0.8,2.3-2.9,2.3c-14.3,0-28.7,0-43,0
		c-0.9,0-1.8,0-2.7,0c-4.2,0.1-7.6,2.7-8.7,6.7C23.7,62,21.4,71,19.1,80c-0.7,2.7,0.9,4.7,3.7,4.7c2.2,0.1,4.5,0,6.7,0
		c15,0,30,0,45,0c8.4,0,13.4-5.1,13.4-13.5c0-10.3,0-20.6,0-30.8c0-4.9-2.6-8.6-7.1-9.7c-1-0.2-2-0.3-3-0.3c-6.6,0-13.2-0.1-19.8,0
		c-5.8,0.1-10.3-2.2-13.3-7.3c-0.6-1.1-1.4-2.1-2.1-3.2c-1.9-3.1-4.8-4.7-8.4-4.7c-4.1,0-8.1,0-12.2,0c-6,0.1-9.9,4-9.9,10
		c0,13.1,0,26.2,0,39.3c0,0.5,0,0.9,0,1.4c0,2-0.7,2.9-2.2,2.8c-1.4,0-2.1-1-2.1-2.9c0-5.8,0-11.6,0-17.3c0-7.8,0-15.6,0-23.5
		c0-6.8,4.1-12.1,10.6-13.7c0.9-0.2,1.8-0.3,2.7-0.3c4.9,0,9.9,0,14.8,0.2c4.2,0.2,7.4,2.3,9.8,5.7c1,1.5,2,3,2.9,4.5
		c2,3.2,4.9,4.8,8.7,4.8c7,0,13.9,0,20.9,0c8,0,13.9,5.7,14,13.8c0.1,10.8,0.1,21.6,0,32.4c-0.1,8.3-5.4,14.7-13.4,16.4
		C77.4,89,76,89,74.5,89C66.2,89,57.8,89,49.4,89L49.4,89z"/>
	<path d="M58.5,59.3c0,5.7,0,11.1,0,16.4c0,1.5-0.7,2.3-1.9,2.4c-1.3,0.1-2-0.8-2.2-2.2c-0.1-0.4,0-0.9,0-1.3c0-4.4,0-8.8,0-13.3v-2
		c-1.4,1.2-2.6,2.3-3.8,3.3c-1.4,1.2-2.5,1.2-3.4-0.1c-0.8-1.1-0.5-2.4,0.7-3.5c2.2-2,4.5-4,6.8-6c1.5-1.3,2.1-1.3,3.6,0
		c2.3,2,4.5,4,6.8,6c1.4,1.2,1.6,2.5,0.7,3.7c-0.9,1.1-2,1.1-3.3,0C61.2,61.7,60,60.6,58.5,59.3L58.5,59.3z"/>
</g>
</svg>
