<?xml version="1.0" encoding="utf-8"?>
<!-- Generator: Adobe Illustrator 28.0.0, SVG Export Plug-In . SVG Version: 6.00 Build 0)  -->
<svg version="1.1" id="Layer_1" xmlns="http://www.w3.org/2000/svg" xmlns:xlink="http://www.w3.org/1999/xlink" x="0px" y="0px"
	 viewBox="0 0 100 100" style="enable-background:new 0 0 100 100;" xml:space="preserve">
<g>
	<path d="M10,49.9c0-10,0-19.9,0-29.9c0-6.3,3.8-10,10.1-10C40,10,60,10,79.9,10C86.2,10,90,13.8,90,20c0,9.9,0,19.7,0,29.6
		c0,2.7-2.5,4.3-4.6,3c-1.2-0.7-1.5-1.8-1.5-3.2c0-9.7,0-19.4,0-29.1c0-0.3,0-0.7,0-1c-0.1-1.9-1.3-3.1-3.1-3.2c-0.3,0-0.6,0-0.9,0
		c-19.9,0-39.7,0-59.6,0c-3.1,0-4,1-4,4.1c0,19.9,0,39.7,0,59.6c0,3,1,4,4,4c9.8,0,19.6,0,29.5,0c2.6,0,4.2,2.3,3.1,4.5
		c-0.9,1.3-2,1.7-3.4,1.7c-10,0-20,0-30,0c-0.6,0-1.1,0-1.7-0.1C13.1,89,10,85.4,10,80.5C10,70.3,10,60.1,10,49.9L10,49.9z"/>
	<path d="M76.3,78.3c-4.2,3.2-8.8,4.3-13.8,3c-6-1.5-10.7-6.9-11.3-13.3c-0.7-6.3,2.8-12.6,8.4-15.3c10.8-5.3,22.9,2.8,22.3,14.7
		c-0.1,1.7-0.7,3.3-1.2,4.9c-0.3,0.8-0.2,1.3,0.5,1.8c2.6,2,5.2,4.1,7.8,6.2c1.3,1,1.5,2.6,0.8,3.9c-0.6,1.2-2.1,1.8-3.4,1.4
		c-0.7-0.2-1.3-0.6-1.9-1.1C81.7,82.6,79,80.4,76.3,78.3z M75.6,66.4c0-5.1-4.1-9.2-9.2-9.2s-9.2,4-9.3,9.1c0,5.1,4.1,9.3,9.2,9.3
		C71.5,75.6,75.6,71.5,75.6,66.4z"/>
	<path d="M50,36.7c-6.7,0-13.5,0-20.2,0c-1.4,0-2.5-0.6-3.1-1.9c-0.5-1.2-0.4-2.4,0.6-3.3c0.6-0.5,1.5-1,2.3-1
		c13.6-0.1,27.2,0,40.9,0c1.8,0,3.1,1.3,3.1,3c0,1.8-1.3,3.1-3.2,3.1C63.6,36.7,56.8,36.7,50,36.7z"/>
	<path d="M37.6,53.1c-2.6,0-5.1,0-7.7,0c-2.1,0-3.5-1.3-3.5-3.1s1.4-3,3.4-3c5.2,0,10.5,0,15.7,0c2,0,3.4,1.3,3.4,3
		c0,1.8-1.4,3.1-3.5,3.1C42.9,53.1,40.2,53.1,37.6,53.1L37.6,53.1z"/>
</g>
</svg>
