<?xml version="1.0" encoding="utf-8"?>
<!-- Generator: Adobe Illustrator 27.8.0, SVG Export Plug-In . SVG Version: 6.00 Build 0)  -->
<svg version="1.1" id="Layer_1" xmlns="http://www.w3.org/2000/svg" xmlns:xlink="http://www.w3.org/1999/xlink" x="0px" y="0px"
	 viewBox="0 0 100 100" style="enable-background:new 0 0 100 100;" xml:space="preserve">
<g>
	<path d="M19.8,29.4c0-4.6,0-9.1,0-13.5c0-2.1,0.2-2.3,2.3-2.3c1.4,0,2.9,0,4.3,0c0.1,0,0.2,0,0.5-0.1c0-1.6,0.1-3.3,0-5
		c-0.1-1.5,0.6-2,2-2c11.5,0,23,0,34.5,0.1c0.8,0,1.7,0.4,2.3,1c2,1.8,3.9,3.7,5.7,5.7c0.6,0.6,1,1.7,1,2.6
		c0.1,10.1,0,20.1,0.1,30.2c0,0.7,0.3,1.6,0.7,2c6.2,6.5,7.4,14.8,3.2,22.8c-0.1,0.2-0.2,0.4-0.3,0.7c1,1,2,2,3.1,3
		c0.2,0.2,0.6,0.3,0.9,0.3c1.3-0.2,2.3,0.3,3.2,1.1c2.9,2.9,5.9,5.7,8.9,8.6c1.7,1.7,1.7,3.2,0.1,4.9c-1,1.1-2,2.1-3,3.1
		c-1.4,1.3-3,1.5-4.3,0.1c-3.4-3.5-6.7-7.1-10.3-11c-1.8,4.6-4.8,5.7-8.8,5.7c-17.2-0.1-34.3,0-51.5,0c-5,0-7.8-2.9-7.8-7.9
		c0-14,0-28.1,0-42.1c0-5,2.9-7.9,7.8-7.9C16.1,29.4,17.9,29.4,19.8,29.4L19.8,29.4z M9.4,48c0,0.4-0.1,0.7-0.1,1
		c0,10.4,0,20.8,0,31.2c0,2.4,1.8,4.2,4.4,4.2c17.9,0,35.9,0,53.8,0c4.1,0,5.2-3.8,4-7.5c0-0.1-0.2-0.2-0.4-0.2
		c-8.4,5.7-17.8,4.4-23.4-0.9c-9.2-8.6-8.9-18.1-1.6-27.9L9.4,48L9.4,48z M62.5,23.2c-1.7,0-3.3,0-4.9,0c-1.4,0.1-2-0.5-1.9-1.9
		c0.1-1.6,0-3.3,0-4.9h-33v13c1.7,0,3.3-0.1,4.9,0c1.7,0.1,3.6-0.2,5,0.5c2.1,0.9,4.2,0.9,6.3,0.9c4,0,8,0,12.1,0
		c1.4,0,2.8-0.1,4.2,0.1c0.6,0.1,1,0.9,1.5,1.3c-0.5,0.4-1,0.9-1.5,1.2c-0.3,0.2-0.8,0-1.2,0c-5.1,0-10.1,0-15.2,0
		c-0.5,0-1,0.1-1.7,0.1c0.7,1.2,1.4,2.2,1.8,3.2c0.5,1.2,1.3,1.6,2.6,1.6c4.4-0.1,8.9,0,13.3,0c0.9,0,1.7,0.2,1.8,1.2
		c0,1.1-0.8,1.4-1.8,1.4c-0.4,0-0.7,0-1.1,0c-3.6,0-7.1,0-10.7,0h-1.7c0.7,1.3,1.3,2.3,1.8,3.2c0.2,0.3,0.5,0.9,0.7,0.9
		c2.2,0,4.7,0.5,6.5-0.3c3.9-1.6,7.7-2.8,12-2.2L62.5,23.2L62.5,23.2z M40.6,45.2c-2.3-3.9-4.4-7.7-6.8-11.2
		c-0.6-0.9-2.2-1.6-3.3-1.7c-5.8-0.2-11.5-0.1-17.3-0.1c-1.9,0-3.8,1.6-3.9,3.4c-0.1,3.2,0,6.4,0,9.6H40.6z M69.6,45.1v-29
		c-1.7,0-3.3,0-4.9,0c-1.4,0.1-2-0.5-1.9-1.9c0.1-1.6,0-3.3,0-4.8h-33v4.2c0.7,0,1.2,0,1.8,0c8.1,0,16.3,0,24.4,0
		c0.9,0,1.9,0.4,2.6,1c2,1.8,3.7,3.7,5.6,5.5c0.9,0.8,1.2,1.7,1.1,2.9c0,6.7,0,13.4,0,20.1C66.8,43.8,68.1,44.4,69.6,45.1L69.6,45.1
		z M59.9,77.7c8.9,0,16.2-7.3,16.2-16.2c0-9-7.4-16.4-16.3-16.3c-8.9,0-16.2,7.4-16.2,16.2C43.6,70.4,50.9,77.7,59.9,77.7L59.9,77.7
		z M90.3,87.5c-3.2-3.5-6.3-6.9-9.2-10.1c-1.5,1.4-2.8,2.5-3.6,3.2c3.2,3.5,6.2,6.9,9.3,10.3C88.3,89.5,89.5,88.3,90.3,87.5
		L90.3,87.5z M73.3,74.9c1.1,1,2.1,1.9,3.1,3c0.4-0.5,0.8-0.8,0.9-1c-1-1.2-1.9-2.2-2.8-3.2C74.1,74.1,73.8,74.4,73.3,74.9z
		 M58.5,18.5v1.9h1.7C59.7,19.8,59.2,19.2,58.5,18.5z"/>
	<path d="M39,26c-2.9,0-5.8,0-8.7,0c-0.9,0-1.7-0.2-1.8-1.2c-0.1-1.1,0.8-1.5,1.8-1.5c5.8,0,11.5,0,17.3,0c1,0,1.8,0.4,1.8,1.5
		c0,1.1-1,1.3-1.9,1.3C44.7,26,41.8,26,39,26L39,26z"/>
	<path d="M45.8,61.3c0-7.6,6.6-14,14.1-13.9c7.7,0.1,14,6.5,13.9,14.1c0,7.7-6.4,14.1-14.1,14C52.1,75.5,45.8,69,45.8,61.3
		L45.8,61.3z M59.8,72.7c6.3,0,11.3-5,11.3-11.3c0-6.2-5.1-11.3-11.3-11.3c-6.1,0-11.2,5.1-11.2,11.2C48.6,67.6,53.6,72.7,59.8,72.7
		L59.8,72.7z"/>
</g>
</svg>
